<svg xmlns="http://www.w3.org/2000/svg" version="1.0" preserveAspectRatio="xMidYMid meet" viewBox="119.9 155 272.2 202">
    <g fill="#333a56" stroke="none" stroke-width="50" transform="translate(0.000000,512.000000) scale(0.100000,-0.100000)">
        <path d="M3570 2933 c0 -692 -3 -737 -55 -814 -13 -21 -46 -51 -72 -66 -41 -24 -59 -28 -124 -28 -67 0 -81 4 -125 30 -39 25 -56 44 -83 97 -29 58 -34 79 -39 162 l-5 96 -172 0 -173 0 5 -82 c12 -219 68 -367 181 -477 112 -110 225 -151 417 -151 63 0 137 7 174 15 148 35 271 135 341 278 74 151 73 139 77 900 l4 677 -176 0 -175 0 0 -637z"/>
        <path d="M2791 3244 c-12 -15 -21 -33 -21 -40 0 -12 -127 -14 -779 -14 l-779 0 -6 -92 c-3 -51 -6 -103 -7 -116 -1 -31 28 -62 58 -62 32 0 63 17 63 35 0 8 6 15 12 15 7 0 107 -31 223 -69 115 -38 297 -97 404 -131 l194 -62 -48 -48 c-33 -33 -59 -50 -84 -55 -20 -4 -55 -15 -78 -25 l-43 -19 0 -79 c0 -43 3 -82 7 -85 3 -4 14 4 22 17 24 36 281 324 312 349 14 12 76 68 137 125 61 56 117 102 125 102 13 0 203 -208 196 -214 -2 -2 -96 -8 -207 -14 -135 -6 -208 -14 -215 -22 -12 -13 218 -8 465 9 l103 7 28 -29 c22 -23 32 -28 55 -23 31 8 62 40 62 66 0 60 -86 86 -124 37 -19 -24 -29 -27 -76 -26 l-55 1 -103 116 -103 117 155 3 156 3 0 55 c0 43 4 56 18 61 32 11 52 36 52 65 0 64 -80 92 -119 42z m-321 -230 c0 -4 -21 -25 -47 -47 -27 -23 -93 -85 -148 -139 l-100 -97 -255 80 c-390 122 -590 190 -590 200 0 5 231 9 570 9 314 0 570 -3 570 -6z"/>
        <path d="M1532 2819 c-13 -5 -29 -22 -34 -37 -9 -24 -19 -30 -63 -38 -48 -9 -53 -8 -69 14 -37 49 -128 0 -112 -61 16 -65 85 -77 121 -20 16 26 29 33 70 41 42 7 53 6 70 -9 11 -10 33 -19 48 -21 25 -3 43 -25 143 -185 112 -179 114 -182 108 -228 l-7 -46 -185 -126 c-159 -108 -187 -124 -203 -115 -47 30 -99 -4 -99 -62 0 -85 124 -88 132 -3 3 29 16 41 150 132 80 55 164 112 185 127 35 25 41 26 76 15 l37 -12 0 -317 0 -318 170 0 170 0 0 575 c0 316 -4 575 -8 575 -13 0 -271 -288 -315 -350 -8 -12 -27 -22 -42 -23 -25 -2 -33 7 -83 88 -30 50 -83 135 -119 189 -57 88 -63 102 -54 123 16 36 14 51 -14 78 -26 27 -37 29 -73 14z"/>
    </g>
</svg>